# xmcd
# Track frame offsets:
# 150
# 21954
# 33541
# 46754
# 59641
# 71079
# 85879
# 97116
# 116041
# 127816
# 136216
# 155691
# 170829
# 182666
# 191841
# 202929
# 213579
# 236454
# 248416
# 257604
# 270866
# 285991
# 304466
# 317816
# 331666
#
# Disc length: 4677 seconds
# Revision: 0
# Processed by: cddbd v1.5.2PL0 Copyright (c) Steve Scherf et al.
# Submitted via: VisiTrax 2.10.1.251 - For more info visit www.synapsa.com
#
DISCID=69124319
DTITLE=Various (1960's) Blues Artists - The Blues Scene
DYEAR=1999
DGENRE=Blues
TTITLE0=Bluesbreakers - Curly
TTITLE1=Eddie Boyd - Key To The Highway
TTITLE2=John Mayall's Bluesbreakers (with Peter Green) - The Supernatural
TTITLE3=Otis Spann - Pretty Girls Everywhere
TTITLE4=Eddie Boyd - Blue Coat Man
TTITLE5=Champion Jack Dupree with John Mayall and Eric Clapton - Third Degree
TTITLE6=John Mayall's Bluesbreakers (with Eric Clapton) - Steppin' Out
TTITLE7=Savoy Brown - Train To Nowhere
TTITLE8=Curtis Jones - Roll Me Over
TTITLE9=Zoot Money - Get On The Right Track Baby
TTITLE10=Alexis Korner - Night Time Is The Right Time
TTITLE11=Mae Mercer - Sweet Little Angel
TTITLE12=Graham Bond Organisation - Strut Around
TTITLE13=Steve Angelo and John Mayall - Long Night
TTITLE14=Davy Graham - Goin' Down Slow
TTITLE15=Savoy Brown - Taste And Try (Before You Buy)
TTITLE16=Keef Hartley - Me And My Woman
TTITLE17=Eddie Boyd - Dust My Broom
TTITLE18=Champion Jack Dupree and Mickey 'Guitar' Baker - Barrel House Woman
TTITLE19=Rod Stewart - I'm Gonna Move To The Outskirts Of Town
TTITLE20=John Mayall's Bluesbreakers (with Peter Green) - Double Trouble
TTITLE21=Champion Jack Dupree - 24 Hours
TTITLE22=Alexis Korner - Early In The Morning
TTITLE23=Savoy Brown Blues Band The - Let Me Love You Baby
TTITLE24=John Mayal's Bluesbreakers - I Need Your Love
EXTD=deram\n844 801-2\npart of the Decca originals series 1999
EXTT0=
EXTT1=
EXTT2=
EXTT3=
EXTT4=
EXTT5=
EXTT6=
EXTT7=
EXTT8=
EXTT9=
EXTT10=
EXTT11=
EXTT12=
EXTT13=
EXTT14=
EXTT15=
EXTT16=
EXTT17=
EXTT18=
EXTT19=
EXTT20=
EXTT21=
EXTT22=
EXTT23=
EXTT24=
PLAYORDER=
